<?xml version="1.0" standalone="no"?>
<!DOCTYPE svg PUBLIC "-//W3C//DTD SVG 20010904//EN"
 "http://www.w3.org/TR/2001/REC-SVG-20010904/DTD/svg10.dtd">
<svg version="1.0" xmlns="http://www.w3.org/2000/svg"
 width="1920.000000pt" height="1920.000000pt" viewBox="0 0 1920.000000 1920.000000"
 preserveAspectRatio="xMidYMid meet">
<metadata>
Created by potrace 1.14, written by Peter Selinger 2001-2017
</metadata>
<g transform="translate(0.000000,1920.000000) scale(0.100000,-0.100000)"
fill="#000000" stroke="none">
<path d="M4862 11165 c-219 -60 -215 -324 6 -380 65 -17 135 -10 194 20 246
123 73 434 -200 360z"/>
<path d="M6866 11164 c-97 -34 -156 -103 -156 -183 0 -119 99 -203 240 -204
203 0 310 186 187 325 -53 61 -187 91 -271 62z"/>
<path d="M9340 11161 c-98 -35 -150 -100 -150 -187 0 -113 101 -196 239 -197
205 -1 315 192 185 327 -60 63 -184 89 -274 57z"/>
<path d="M13900 11161 c-65 -23 -97 -48 -126 -97 -79 -135 35 -288 214 -287
172 1 284 133 228 267 -18 42 -70 93 -116 113 -50 21 -146 23 -200 4z"/>
<path d="M10177 11074 c-1 -1 -29 -4 -62 -7 -130 -13 -237 -68 -275 -142 -26
-50 -28 -62 -29 -147 l-1 -68 -60 0 -60 0 0 -75 c0 -53 4 -75 13 -76 6 -1 34
-1 60 -1 l48 0 -1 -46 c-1 -26 -1 -248 -1 -494 l1 -448 210 0 210 0 0 494 0
493 78 0 c42 1 84 1 92 2 12 1 15 16 15 74 l0 72 -93 3 -92 3 0 89 c0 78 3 92
23 115 44 52 122 32 173 -43 20 -28 23 -30 42 -16 22 15 75 96 86 131 5 17 0
23 -34 37 -47 19 -118 36 -175 42 -44 5 -165 11 -168 8z"/>
<path d="M10937 11074 c-1 -1 -31 -4 -67 -7 -112 -11 -191 -41 -244 -93 -52
-52 -66 -96 -67 -201 l0 -63 -60 0 -59 0 0 -78 0 -77 59 0 59 1 0 -450 c1
-248 1 -470 1 -493 l1 -43 210 0 210 0 0 494 0 493 78 -1 c107 -3 109 -1 107
81 l-1 68 -92 3 -93 3 2 88 c1 74 5 93 23 115 38 47 104 39 155 -19 16 -18 31
-39 33 -46 9 -26 93 78 112 138 6 19 0 24 -48 42 -55 21 -74 25 -150 36 -36 6
-165 12 -169 9z"/>
<path d="M2970 10310 l0 -740 75 0 75 0 0 158 c1 86 1 260 0 385 l0 228 27
-29 c16 -16 102 -106 192 -201 l165 -172 50 80 c28 45 67 106 86 137 76 123
100 159 108 169 5 6 11 16 13 21 2 6 60 100 129 208 l125 198 3 -591 2 -591
260 0 260 0 0 88 c1 122 1 1298 0 1350 l0 42 -260 0 -260 0 -53 -82 c-29 -46
-100 -157 -157 -248 -57 -91 -111 -173 -120 -183 -15 -16 -21 -11 -110 85 -52
56 -108 116 -125 133 -119 126 -261 279 -263 286 -2 5 -53 9 -113 9 l-109 0 0
-740z"/>
<path d="M8534 10840 c1 -116 -2 -210 -5 -210 -3 0 -18 14 -35 31 -44 48 -103
70 -182 70 -78 0 -90 -2 -159 -29 -79 -30 -160 -95 -221 -177 -23 -32 -53 -99
-73 -165 -36 -117 -33 -350 6 -460 31 -88 68 -150 121 -203 154 -157 377 -198
500 -93 23 20 44 33 46 30 3 -2 4 -18 2 -34 l-4 -30 208 0 208 0 0 740 0 740
-206 0 -206 0 0 -210z m-67 -263 c30 -11 55 -71 62 -147 3 -36 6 -196 5 -356
-1 -283 -2 -293 -23 -328 -29 -46 -58 -66 -96 -66 -53 0 -93 42 -116 124 -30
101 -32 462 -5 595 20 98 34 129 75 163 29 25 56 29 98 15z"/>
<path d="M6128 10728 c-85 -8 -158 -42 -225 -102 l-53 -48 0 66 0 66 -205 0
c-157 0 -205 -3 -206 -12 0 -18 0 -1032 0 -1085 l1 -43 205 0 205 0 0 98 c0
267 7 769 11 782 17 52 23 65 43 87 39 46 126 64 165 34 43 -32 48 -86 49
-520 0 -223 1 -423 1 -443 l1 -38 205 0 206 0 -3 473 c-3 458 -4 473 -24 518
-28 59 -75 105 -139 135 -77 36 -132 43 -237 32z"/>
<path d="M12940 10718 c-88 -22 -127 -40 -179 -85 -88 -75 -127 -215 -96 -348
25 -108 90 -186 205 -248 63 -34 91 -44 285 -104 124 -38 160 -73 156 -150 -1
-30 -54 -80 -99 -93 -63 -19 -214 -21 -273 -4 -117 35 -178 112 -149 189 9 22
7 30 -7 41 -19 14 -129 54 -150 54 -35 0 -40 -145 -8 -213 55 -117 232 -204
425 -211 313 -10 520 140 523 379 2 144 -30 233 -115 315 -66 64 -116 88 -314
149 -72 23 -143 50 -156 61 -54 42 -37 114 33 148 80 38 201 12 277 -59 32
-30 36 -31 71 -20 21 6 55 26 77 45 l39 34 -24 25 c-81 88 -351 137 -521 95z"/>
<path d="M14917 10735 c-1 -2 -28 -5 -59 -9 -177 -18 -364 -149 -446 -311
-103 -206 -73 -467 75 -650 137 -169 327 -241 557 -211 226 29 432 218 483
446 12 49 10 207 -3 266 -48 231 -252 430 -472 460 -44 6 -131 11 -135 9z m85
-142 c56 -51 80 -170 82 -421 4 -354 -36 -502 -138 -505 -100 -3 -144 144
-143 483 0 255 23 378 81 436 27 27 39 32 66 29 18 -3 42 -12 52 -22z"/>
<path d="M16462 10728 c-81 -9 -154 -43 -219 -102 l-53 -48 0 66 0 66 -205 0
-205 0 0 -22 c-1 -33 -1 -1047 -1 -1085 l1 -33 205 0 205 0 1 388 c0 213 3
414 5 446 5 62 29 120 60 147 38 34 105 44 146 23 24 -12 32 -25 46 -74 4 -12
12 -604 12 -862 l0 -68 206 0 205 0 -3 473 -3 472 -24 49 c-13 27 -38 62 -55
79 -67 65 -198 100 -324 85z"/>
<path d="M4730 10140 l0 -570 210 0 210 0 0 570 0 570 -210 0 -210 0 0 -570z"/>
<path d="M6739 10668 c0 -60 0 -1026 0 -1065 l1 -33 210 0 210 0 0 570 0 570
-210 0 -210 0 -1 -42z"/>
<path d="M9219 10683 c0 -31 0 -1068 1 -1095 0 -17 17 -18 210 -18 l210 0 0
570 0 570 -210 0 -210 0 -1 -27z"/>
<path d="M11395 10258 c1 -502 4 -526 65 -601 101 -121 346 -149 498 -55 18
11 38 25 45 31 7 7 27 24 43 39 l30 28 -1 -65 -1 -65 207 0 208 0 0 570 -1
570 -207 -2 -206 -3 -1 -410 c-1 -415 -4 -464 -31 -522 -39 -84 -184 -108
-211 -35 -20 53 -23 105 -23 536 l-1 436 -207 0 -207 0 1 -452z"/>
<path d="M13779 10678 c0 -42 0 -1079 0 -1095 1 -10 50 -13 211 -13 l210 0 0
570 0 570 -210 0 -210 0 -1 -32z"/>
<path d="M7210 10280 l0 -110 259 0 260 0 3 106 c2 58 1 108 -1 110 -2 2 -121
4 -263 4 l-258 0 0 -110z"/>
</g>
</svg>
